<?xml version="1.0" encoding="utf-8" standalone="no"?>
<!DOCTYPE svg PUBLIC "-//W3C//DTD SVG 1.1//EN"
  "http://www.w3.org/Graphics/SVG/1.1/DTD/svg11.dtd">
<svg xmlns:xlink="http://www.w3.org/1999/xlink" width="484.09832pt" height="192.874624pt" viewBox="0 0 484.09832 192.874624" xmlns="http://www.w3.org/2000/svg" version="1.1">
 <metadata>
  <rdf:RDF xmlns:dc="http://purl.org/dc/elements/1.1/" xmlns:cc="http://creativecommons.org/ns#" xmlns:rdf="http://www.w3.org/1999/02/22-rdf-syntax-ns#">
   <cc:Work>
    <dc:type rdf:resource="http://purl.org/dc/dcmitype/StillImage"/>
    <dc:date>2026-07-18T20:51:18.881702</dc:date>
    <dc:format>image/svg+xml</dc:format>
    <dc:creator>
     <cc:Agent>
      <dc:title>Matplotlib v3.11.0, https://matplotlib.org/</dc:title>
     </cc:Agent>
    </dc:creator>
   </cc:Work>
  </rdf:RDF>
 </metadata>
 <defs>
  <style type="text/css">*{stroke-linejoin: round; stroke-linecap: butt}</style>
 </defs>
 <g id="figure_1">
  <g id="patch_1">
   <path d="M 0 192.874624 
L 484.09832 192.874624 
L 484.09832 0 
L 0 0 
z
" style="fill: #ffffff"/>
  </g>
  <g id="axes_1">
   <g id="patch_2">
    <path d="M 36.016689 175.605289 
L 476.89832 175.605289 
L 476.89832 10.502064 
L 36.016689 10.502064 
z
" style="fill: #ffffff"/>
   </g>
   <g id="patch_3">
    <path d="M 56.056764 175.605289 
L 88.667908 175.605289 
L 88.667908 119.817507 
L 56.056764 119.817507 
z
" clip-path="url(#p70c1c8f091)" style="fill: #2166ac; stroke: #ffffff; stroke-width: 0.4; stroke-linejoin: miter"/>
   </g>
   <g id="patch_4">
    <path d="M 108.655383 175.605289 
L 141.266528 175.605289 
L 141.266528 94.784528 
L 108.655383 94.784528 
z
" clip-path="url(#p70c1c8f091)" style="fill: #2166ac; stroke: #ffffff; stroke-width: 0.4; stroke-linejoin: miter"/>
   </g>
   <g id="patch_5">
    <path d="M 161.254003 175.605289 
L 193.865147 175.605289 
L 193.865147 104.79772 
L 161.254003 104.79772 
z
" clip-path="url(#p70c1c8f091)" style="fill: #2166ac; stroke: #ffffff; stroke-width: 0.4; stroke-linejoin: miter"/>
   </g>
   <g id="patch_6">
    <path d="M 213.852623 175.605289 
L 246.463767 175.605289 
L 246.463767 74.042917 
L 213.852623 74.042917 
z
" clip-path="url(#p70c1c8f091)" style="fill: #2166ac; stroke: #ffffff; stroke-width: 0.4; stroke-linejoin: miter"/>
   </g>
   <g id="patch_7">
    <path d="M 266.451243 175.605289 
L 299.062387 175.605289 
L 299.062387 134.837294 
L 266.451243 134.837294 
z
" clip-path="url(#p70c1c8f091)" style="fill: #2166ac; stroke: #ffffff; stroke-width: 0.4; stroke-linejoin: miter"/>
   </g>
   <g id="patch_8">
    <path d="M 319.049862 175.605289 
L 351.661007 175.605289 
L 351.661007 88.347476 
L 319.049862 88.347476 
z
" clip-path="url(#p70c1c8f091)" style="fill: #2166ac; stroke: #ffffff; stroke-width: 0.4; stroke-linejoin: miter"/>
   </g>
   <g id="patch_9">
    <path d="M 371.648482 175.605289 
L 404.259626 175.605289 
L 404.259626 102.652036 
L 371.648482 102.652036 
z
" clip-path="url(#p70c1c8f091)" style="fill: #2166ac; stroke: #ffffff; stroke-width: 0.4; stroke-linejoin: miter"/>
   </g>
   <g id="patch_10">
    <path d="M 424.247102 175.605289 
L 456.858246 175.605289 
L 456.858246 111.234771 
L 424.247102 111.234771 
z
" clip-path="url(#p70c1c8f091)" style="fill: #2166ac; stroke: #ffffff; stroke-width: 0.4; stroke-linejoin: miter"/>
   </g>
   <g id="patch_11">
    <path d="M 56.056764 119.817507 
L 88.667908 119.817507 
L 88.667908 112.665227 
L 56.056764 112.665227 
z
" clip-path="url(#p70c1c8f091)" style="fill: #92c5de; stroke: #ffffff; stroke-width: 0.4; stroke-linejoin: miter"/>
   </g>
   <g id="patch_12">
    <path d="M 108.655383 94.784528 
L 141.266528 94.784528 
L 141.266528 79.049513 
L 108.655383 79.049513 
z
" clip-path="url(#p70c1c8f091)" style="fill: #92c5de; stroke: #ffffff; stroke-width: 0.4; stroke-linejoin: miter"/>
   </g>
   <g id="patch_13">
    <path d="M 161.254003 104.79772 
L 193.865147 104.79772 
L 193.865147 93.354072 
L 161.254003 93.354072 
z
" clip-path="url(#p70c1c8f091)" style="fill: #92c5de; stroke: #ffffff; stroke-width: 0.4; stroke-linejoin: miter"/>
   </g>
   <g id="patch_14">
    <path d="M 213.852623 74.042917 
L 246.463767 74.042917 
L 246.463767 54.731762 
L 213.852623 54.731762 
z
" clip-path="url(#p70c1c8f091)" style="fill: #92c5de; stroke: #ffffff; stroke-width: 0.4; stroke-linejoin: miter"/>
   </g>
   <g id="patch_15">
    <path d="M 266.451243 134.837294 
L 299.062387 134.837294 
L 299.062387 121.247963 
L 266.451243 121.247963 
z
" clip-path="url(#p70c1c8f091)" style="fill: #92c5de; stroke: #ffffff; stroke-width: 0.4; stroke-linejoin: miter"/>
   </g>
   <g id="patch_16">
    <path d="M 319.049862 88.347476 
L 351.661007 88.347476 
L 351.661007 71.897233 
L 319.049862 71.897233 
z
" clip-path="url(#p70c1c8f091)" style="fill: #92c5de; stroke: #ffffff; stroke-width: 0.4; stroke-linejoin: miter"/>
   </g>
   <g id="patch_17">
    <path d="M 371.648482 102.652036 
L 404.259626 102.652036 
L 404.259626 85.486565 
L 371.648482 85.486565 
z
" clip-path="url(#p70c1c8f091)" style="fill: #92c5de; stroke: #ffffff; stroke-width: 0.4; stroke-linejoin: miter"/>
   </g>
   <g id="patch_18">
    <path d="M 424.247102 111.234771 
L 456.858246 111.234771 
L 456.858246 95.499756 
L 424.247102 95.499756 
z
" clip-path="url(#p70c1c8f091)" style="fill: #92c5de; stroke: #ffffff; stroke-width: 0.4; stroke-linejoin: miter"/>
   </g>
   <g id="patch_19">
    <path d="M 56.056764 112.665227 
L 88.667908 112.665227 
L 88.667908 110.519543 
L 56.056764 110.519543 
z
" clip-path="url(#p70c1c8f091)" style="fill: #f4a582; stroke: #ffffff; stroke-width: 0.4; stroke-linejoin: miter"/>
   </g>
   <g id="patch_20">
    <path d="M 108.655383 79.049513 
L 141.266528 79.049513 
L 141.266528 70.466777 
L 108.655383 70.466777 
z
" clip-path="url(#p70c1c8f091)" style="fill: #f4a582; stroke: #ffffff; stroke-width: 0.4; stroke-linejoin: miter"/>
   </g>
   <g id="patch_21">
    <path d="M 161.254003 93.354072 
L 193.865147 93.354072 
L 193.865147 86.201793 
L 161.254003 86.201793 
z
" clip-path="url(#p70c1c8f091)" style="fill: #f4a582; stroke: #ffffff; stroke-width: 0.4; stroke-linejoin: miter"/>
   </g>
   <g id="patch_22">
    <path d="M 213.852623 54.731762 
L 246.463767 54.731762 
L 246.463767 46.864254 
L 213.852623 46.864254 
z
" clip-path="url(#p70c1c8f091)" style="fill: #f4a582; stroke: #ffffff; stroke-width: 0.4; stroke-linejoin: miter"/>
   </g>
   <g id="patch_23">
    <path d="M 266.451243 121.247963 
L 299.062387 121.247963 
L 299.062387 117.671823 
L 266.451243 117.671823 
z
" clip-path="url(#p70c1c8f091)" style="fill: #f4a582; stroke: #ffffff; stroke-width: 0.4; stroke-linejoin: miter"/>
   </g>
   <g id="patch_24">
    <path d="M 319.049862 71.897233 
L 351.661007 71.897233 
L 351.661007 62.59927 
L 319.049862 62.59927 
z
" clip-path="url(#p70c1c8f091)" style="fill: #f4a582; stroke: #ffffff; stroke-width: 0.4; stroke-linejoin: miter"/>
   </g>
   <g id="patch_25">
    <path d="M 371.648482 85.486565 
L 404.259626 85.486565 
L 404.259626 78.334285 
L 371.648482 78.334285 
z
" clip-path="url(#p70c1c8f091)" style="fill: #f4a582; stroke: #ffffff; stroke-width: 0.4; stroke-linejoin: miter"/>
   </g>
   <g id="patch_26">
    <path d="M 424.247102 95.499756 
L 456.858246 95.499756 
L 456.858246 85.486565 
L 424.247102 85.486565 
z
" clip-path="url(#p70c1c8f091)" style="fill: #f4a582; stroke: #ffffff; stroke-width: 0.4; stroke-linejoin: miter"/>
   </g>
   <g id="patch_27">
    <path d="M 56.056764 110.519543 
L 88.667908 110.519543 
L 88.667908 107.658632 
L 56.056764 107.658632 
z
" clip-path="url(#p70c1c8f091)" style="fill: #b2182b; stroke: #ffffff; stroke-width: 0.4; stroke-linejoin: miter"/>
   </g>
   <g id="patch_28">
    <path d="M 108.655383 70.466777 
L 141.266528 70.466777 
L 141.266528 66.890637 
L 108.655383 66.890637 
z
" clip-path="url(#p70c1c8f091)" style="fill: #b2182b; stroke: #ffffff; stroke-width: 0.4; stroke-linejoin: miter"/>
   </g>
   <g id="patch_29">
    <path d="M 161.254003 86.201793 
L 193.865147 86.201793 
L 193.865147 85.486565 
L 161.254003 85.486565 
z
" clip-path="url(#p70c1c8f091)" style="fill: #b2182b; stroke: #ffffff; stroke-width: 0.4; stroke-linejoin: miter"/>
   </g>
   <g id="patch_30">
    <path d="M 213.852623 46.864254 
L 246.463767 46.864254 
L 246.463767 46.864254 
L 213.852623 46.864254 
z
" clip-path="url(#p70c1c8f091)" style="fill: #b2182b; stroke: #ffffff; stroke-width: 0.4; stroke-linejoin: miter"/>
   </g>
   <g id="patch_31">
    <path d="M 266.451243 117.671823 
L 299.062387 117.671823 
L 299.062387 117.671823 
L 266.451243 117.671823 
z
" clip-path="url(#p70c1c8f091)" style="fill: #b2182b; stroke: #ffffff; stroke-width: 0.4; stroke-linejoin: miter"/>
   </g>
   <g id="patch_32">
    <path d="M 319.049862 62.59927 
L 351.661007 62.59927 
L 351.661007 62.59927 
L 319.049862 62.59927 
z
" clip-path="url(#p70c1c8f091)" style="fill: #b2182b; stroke: #ffffff; stroke-width: 0.4; stroke-linejoin: miter"/>
   </g>
   <g id="patch_33">
    <path d="M 371.648482 78.334285 
L 404.259626 78.334285 
L 404.259626 76.903829 
L 371.648482 76.903829 
z
" clip-path="url(#p70c1c8f091)" style="fill: #b2182b; stroke: #ffffff; stroke-width: 0.4; stroke-linejoin: miter"/>
   </g>
   <g id="patch_34">
    <path d="M 424.247102 85.486565 
L 456.858246 85.486565 
L 456.858246 85.486565 
L 424.247102 85.486565 
z
" clip-path="url(#p70c1c8f091)" style="fill: #b2182b; stroke: #ffffff; stroke-width: 0.4; stroke-linejoin: miter"/>
   </g>
   <g id="patch_35">
    <path d="M 56.056764 107.658632 
L 88.667908 107.658632 
L 88.667908 104.79772 
L 56.056764 104.79772 
z
" clip-path="url(#p70c1c8f091)" style="fill: #bdbdbd; stroke: #ffffff; stroke-width: 0.4; stroke-linejoin: miter"/>
   </g>
   <g id="patch_36">
    <path d="M 108.655383 66.890637 
L 141.266528 66.890637 
L 141.266528 59.738358 
L 108.655383 59.738358 
z
" clip-path="url(#p70c1c8f091)" style="fill: #bdbdbd; stroke: #ffffff; stroke-width: 0.4; stroke-linejoin: miter"/>
   </g>
   <g id="patch_37">
    <path d="M 161.254003 85.486565 
L 193.865147 85.486565 
L 193.865147 79.049513 
L 161.254003 79.049513 
z
" clip-path="url(#p70c1c8f091)" style="fill: #bdbdbd; stroke: #ffffff; stroke-width: 0.4; stroke-linejoin: miter"/>
   </g>
   <g id="patch_38">
    <path d="M 213.852623 46.864254 
L 246.463767 46.864254 
L 246.463767 33.274923 
L 213.852623 33.274923 
z
" clip-path="url(#p70c1c8f091)" style="fill: #bdbdbd; stroke: #ffffff; stroke-width: 0.4; stroke-linejoin: miter"/>
   </g>
   <g id="patch_39">
    <path d="M 266.451243 117.671823 
L 299.062387 117.671823 
L 299.062387 115.526139 
L 266.451243 115.526139 
z
" clip-path="url(#p70c1c8f091)" style="fill: #bdbdbd; stroke: #ffffff; stroke-width: 0.4; stroke-linejoin: miter"/>
   </g>
   <g id="patch_40">
    <path d="M 319.049862 62.59927 
L 351.661007 62.59927 
L 351.661007 48.29471 
L 319.049862 48.29471 
z
" clip-path="url(#p70c1c8f091)" style="fill: #bdbdbd; stroke: #ffffff; stroke-width: 0.4; stroke-linejoin: miter"/>
   </g>
   <g id="patch_41">
    <path d="M 371.648482 76.903829 
L 404.259626 76.903829 
L 404.259626 65.460182 
L 371.648482 65.460182 
z
" clip-path="url(#p70c1c8f091)" style="fill: #bdbdbd; stroke: #ffffff; stroke-width: 0.4; stroke-linejoin: miter"/>
   </g>
   <g id="patch_42">
    <path d="M 424.247102 85.486565 
L 456.858246 85.486565 
L 456.858246 80.479969 
L 424.247102 80.479969 
z
" clip-path="url(#p70c1c8f091)" style="fill: #bdbdbd; stroke: #ffffff; stroke-width: 0.4; stroke-linejoin: miter"/>
   </g>
   <g id="matplotlib.axis_1">
    <g id="xtick_1">
     <g id="line2d_1"/>
     <g id="text_1">
      <text style="font-size: 7px; font-family: 'Arial', 'Helvetica', 'DejaVu Sans'; text-anchor: middle" x="72.362336" y="184.20148" transform="rotate(-0 72.362336 184.20148)">2018*</text>
     </g>
    </g>
    <g id="xtick_2">
     <g id="line2d_2"/>
     <g id="text_2">
      <text style="font-size: 7px; font-family: 'Arial', 'Helvetica', 'DejaVu Sans'; text-anchor: middle" x="124.960955" y="184.20148" transform="rotate(-0 124.960955 184.20148)">2019</text>
     </g>
    </g>
    <g id="xtick_3">
     <g id="line2d_3"/>
     <g id="text_3">
      <text style="font-size: 7px; font-family: 'Arial', 'Helvetica', 'DejaVu Sans'; text-anchor: middle" x="177.559575" y="184.20148" transform="rotate(-0 177.559575 184.20148)">2020</text>
     </g>
    </g>
    <g id="xtick_4">
     <g id="line2d_4"/>
     <g id="text_4">
      <text style="font-size: 7px; font-family: 'Arial', 'Helvetica', 'DejaVu Sans'; text-anchor: middle" x="230.158195" y="184.20148" transform="rotate(-0 230.158195 184.20148)">2021</text>
     </g>
    </g>
    <g id="xtick_5">
     <g id="line2d_5"/>
     <g id="text_5">
      <text style="font-size: 7px; font-family: 'Arial', 'Helvetica', 'DejaVu Sans'; text-anchor: middle" x="282.756815" y="184.20148" transform="rotate(-0 282.756815 184.20148)">2022*</text>
     </g>
    </g>
    <g id="xtick_6">
     <g id="line2d_6"/>
     <g id="text_6">
      <text style="font-size: 7px; font-family: 'Arial', 'Helvetica', 'DejaVu Sans'; text-anchor: middle" x="335.355435" y="184.20148" transform="rotate(-0 335.355435 184.20148)">2023</text>
     </g>
    </g>
    <g id="xtick_7">
     <g id="line2d_7"/>
     <g id="text_7">
      <text style="font-size: 7px; font-family: 'Arial', 'Helvetica', 'DejaVu Sans'; text-anchor: middle" x="387.954054" y="184.20148" transform="rotate(-0 387.954054 184.20148)">2024*</text>
     </g>
    </g>
    <g id="xtick_8">
     <g id="line2d_8"/>
     <g id="text_8">
      <text style="font-size: 7px; font-family: 'Arial', 'Helvetica', 'DejaVu Sans'; text-anchor: middle" x="440.552674" y="184.20148" transform="rotate(-0 440.552674 184.20148)">2025*</text>
     </g>
    </g>
   </g>
   <g id="matplotlib.axis_2">
    <g id="ytick_1">
     <g id="line2d_9">
      <defs>
       <path id="m1636160221" d="M 0 0 
L -2.6 0 
" style="stroke: #000000; stroke-width: 0.6"/>
      </defs>
      <g>
       <use xlink:href="#m1636160221" x="36.016689" y="175.605289" style="stroke: #000000; stroke-width: 0.6"/>
      </g>
     </g>
     <g id="text_9">
      <text style="font-size: 7px; font-family: 'Arial', 'Helvetica', 'DejaVu Sans'; text-anchor: end" x="29.916689" y="178.153384" transform="rotate(-0 29.916689 178.153384)">0</text>
     </g>
    </g>
    <g id="ytick_2">
     <g id="line2d_10">
      <g>
       <use xlink:href="#m1636160221" x="36.016689" y="139.84389" style="stroke: #000000; stroke-width: 0.6"/>
      </g>
     </g>
     <g id="text_10">
      <text style="font-size: 7px; font-family: 'Arial', 'Helvetica', 'DejaVu Sans'; text-anchor: end" x="29.916689" y="142.391986" transform="rotate(-0 29.916689 142.391986)">50</text>
     </g>
    </g>
    <g id="ytick_3">
     <g id="line2d_11">
      <g>
       <use xlink:href="#m1636160221" x="36.016689" y="104.082492" style="stroke: #000000; stroke-width: 0.6"/>
      </g>
     </g>
     <g id="text_11">
      <text style="font-size: 7px; font-family: 'Arial', 'Helvetica', 'DejaVu Sans'; text-anchor: end" x="29.916689" y="106.630587" transform="rotate(-0 29.916689 106.630587)">100</text>
     </g>
    </g>
    <g id="ytick_4">
     <g id="line2d_12">
      <g>
       <use xlink:href="#m1636160221" x="36.016689" y="68.321093" style="stroke: #000000; stroke-width: 0.6"/>
      </g>
     </g>
     <g id="text_12">
      <text style="font-size: 7px; font-family: 'Arial', 'Helvetica', 'DejaVu Sans'; text-anchor: end" x="29.916689" y="70.869189" transform="rotate(-0 29.916689 70.869189)">150</text>
     </g>
    </g>
    <g id="ytick_5">
     <g id="line2d_13">
      <g>
       <use xlink:href="#m1636160221" x="36.016689" y="32.559695" style="stroke: #000000; stroke-width: 0.6"/>
      </g>
     </g>
     <g id="text_13">
      <text style="font-size: 7px; font-family: 'Arial', 'Helvetica', 'DejaVu Sans'; text-anchor: end" x="29.916689" y="35.107791" transform="rotate(-0 29.916689 35.107791)">200</text>
     </g>
    </g>
    <g id="text_14">
     <text style="font-size: 7.5px; font-family: 'Arial', 'Helvetica', 'DejaVu Sans'; text-anchor: middle" x="12.660205" y="93.053677" transform="rotate(-90 12.660205 93.053677)">CATs (n)</text>
    </g>
   </g>
   <g id="patch_43">
    <path d="M 36.016689 175.605289 
L 36.016689 10.502064 
" style="fill: none; stroke: #000000; stroke-width: 0.6; stroke-linejoin: miter; stroke-linecap: square"/>
   </g>
   <g id="patch_44">
    <path d="M 36.016689 175.605289 
L 476.89832 175.605289 
" style="fill: none; stroke: #000000; stroke-width: 0.6; stroke-linejoin: miter; stroke-linecap: square"/>
   </g>
   <g id="text_15">
    <text style="font-size: 6.4px; font-family: 'Arial', 'Helvetica', 'DejaVu Sans'; text-anchor: middle; fill: #4d4d4d" x="72.362336" y="100.950845" transform="rotate(-0 72.362336 100.950845)">99</text>
   </g>
   <g id="text_16">
    <text style="font-size: 6.4px; font-family: 'Arial', 'Helvetica', 'DejaVu Sans'; text-anchor: middle; fill: #4d4d4d" x="124.960955" y="55.891483" transform="rotate(-0 124.960955 55.891483)">162</text>
   </g>
   <g id="text_17">
    <text style="font-size: 6.4px; font-family: 'Arial', 'Helvetica', 'DejaVu Sans'; text-anchor: middle; fill: #4d4d4d" x="177.559575" y="75.202638" transform="rotate(-0 177.559575 75.202638)">135</text>
   </g>
   <g id="text_18">
    <text style="font-size: 6.4px; font-family: 'Arial', 'Helvetica', 'DejaVu Sans'; text-anchor: middle; fill: #4d4d4d" x="230.158195" y="29.428048" transform="rotate(-0 230.158195 29.428048)">199</text>
   </g>
   <g id="text_19">
    <text style="font-size: 6.4px; font-family: 'Arial', 'Helvetica', 'DejaVu Sans'; text-anchor: middle; fill: #4d4d4d" x="282.756815" y="111.679264" transform="rotate(-0 282.756815 111.679264)">84</text>
   </g>
   <g id="text_20">
    <text style="font-size: 6.4px; font-family: 'Arial', 'Helvetica', 'DejaVu Sans'; text-anchor: middle; fill: #4d4d4d" x="335.355435" y="44.447835" transform="rotate(-0 335.355435 44.447835)">178</text>
   </g>
   <g id="text_21">
    <text style="font-size: 6.4px; font-family: 'Arial', 'Helvetica', 'DejaVu Sans'; text-anchor: middle; fill: #4d4d4d" x="387.954054" y="61.613307" transform="rotate(-0 387.954054 61.613307)">154</text>
   </g>
   <g id="text_22">
    <text style="font-size: 6.4px; font-family: 'Arial', 'Helvetica', 'DejaVu Sans'; text-anchor: middle; fill: #4d4d4d" x="440.552674" y="76.633094" transform="rotate(-0 440.552674 76.633094)">133</text>
   </g>
   <g id="legend_1">
    <g id="patch_45">
     <path d="M 38.496689 15.229 
L 44.696689 15.229 
L 44.696689 9.68 
L 38.496689 9.68 
z
" style="fill: #2166ac; stroke: #ffffff; stroke-width: 0.4; stroke-linejoin: miter"/>
    </g>
    <g id="text_23">
     <text style="font-size: 6.2px; font-family: 'Arial', 'Helvetica', 'DejaVu Sans'; text-anchor: start" x="49.656689" y="14.578" transform="rotate(-0 49.656689 14.578)">Téc. e aux. de enfermagem</text>
    </g>
    <g id="patch_46">
     <path d="M 38.496689 23.601906 
L 44.696689 23.601906 
L 44.696689 18.052906 
L 38.496689 18.052906 
z
" style="fill: #92c5de; stroke: #ffffff; stroke-width: 0.4; stroke-linejoin: miter"/>
    </g>
    <g id="text_24">
     <text style="font-size: 6.2px; font-family: 'Arial', 'Helvetica', 'DejaVu Sans'; text-anchor: start" x="49.656689" y="22.950906" transform="rotate(-0 49.656689 22.950906)">Enfermeiros</text>
    </g>
    <g id="patch_47">
     <path d="M 131.047189 15.229 
L 137.247189 15.229 
L 137.247189 9.68 
L 131.047189 9.68 
z
" style="fill: #f4a582; stroke: #ffffff; stroke-width: 0.4; stroke-linejoin: miter"/>
    </g>
    <g id="text_25">
     <text style="font-size: 6.2px; font-family: 'Arial', 'Helvetica', 'DejaVu Sans'; text-anchor: start" x="142.207189" y="14.578" transform="rotate(-0 142.207189 14.578)">Diagnóstico e laboratório</text>
    </g>
    <g id="patch_48">
     <path d="M 131.047189 23.601906 
L 137.247189 23.601906 
L 137.247189 18.052906 
L 131.047189 18.052906 
z
" style="fill: #b2182b; stroke: #ffffff; stroke-width: 0.4; stroke-linejoin: miter"/>
    </g>
    <g id="text_26">
     <text style="font-size: 6.2px; font-family: 'Arial', 'Helvetica', 'DejaVu Sans'; text-anchor: start" x="142.207189" y="22.950906" transform="rotate(-0 142.207189 22.950906)">Medicina</text>
    </g>
    <g id="patch_49">
     <path d="M 216.366939 15.229 
L 222.566939 15.229 
L 222.566939 9.68 
L 216.366939 9.68 
z
" style="fill: #bdbdbd; stroke: #ffffff; stroke-width: 0.4; stroke-linejoin: miter"/>
    </g>
    <g id="text_27">
     <text style="font-size: 6.2px; font-family: 'Arial', 'Helvetica', 'DejaVu Sans'; text-anchor: start" x="227.526939" y="14.578" transform="rotate(-0 227.526939 14.578)">Demais profissões</text>
    </g>
   </g>
  </g>
 </g>
 <defs>
  <clipPath id="p70c1c8f091">
   <rect x="36.016689" y="10.502064" width="440.881631" height="165.103224"/>
  </clipPath>
 </defs>
</svg>
