<?xml version="1.0" encoding="utf-8" standalone="no"?>
<!DOCTYPE svg PUBLIC "-//W3C//DTD SVG 1.1//EN"
  "http://www.w3.org/Graphics/SVG/1.1/DTD/svg11.dtd">
<svg xmlns:xlink="http://www.w3.org/1999/xlink" width="483.925664pt" height="163.6pt" viewBox="0 0 483.925664 163.6" xmlns="http://www.w3.org/2000/svg" version="1.1">
 <metadata>
  <rdf:RDF xmlns:dc="http://purl.org/dc/elements/1.1/" xmlns:cc="http://creativecommons.org/ns#" xmlns:rdf="http://www.w3.org/1999/02/22-rdf-syntax-ns#">
   <cc:Work>
    <dc:type rdf:resource="http://purl.org/dc/dcmitype/StillImage"/>
    <dc:date>2026-07-18T13:32:38.183721</dc:date>
    <dc:format>image/svg+xml</dc:format>
    <dc:creator>
     <cc:Agent>
      <dc:title>Matplotlib v3.11.0, https://matplotlib.org/</dc:title>
     </cc:Agent>
    </dc:creator>
   </cc:Work>
  </rdf:RDF>
 </metadata>
 <defs>
  <style type="text/css">*{stroke-linejoin: round; stroke-linecap: butt}</style>
 </defs>
 <g id="figure_1">
  <g id="patch_1">
   <path d="M 0 163.6 
L 483.925664 163.6 
L 483.925664 -0 
L 0 -0 
z
" style="fill: #ffffff"/>
  </g>
  <g id="axes_1">
   <g id="patch_2">
    <path d="M 32.124033 143.730664 
L 476.725664 143.730664 
L 476.725664 7.2 
L 32.124033 7.2 
z
" style="fill: #ffffff"/>
   </g>
   <g id="patch_3">
    <path d="M 153.587365 143.730664 
L 254.424849 143.730664 
L 254.424849 7.2 
L 153.587365 7.2 
z
" clip-path="url(#p769bd00b3b)" style="fill: #f5e1d3; opacity: 0.55"/>
   </g>
   <g id="matplotlib.axis_1">
    <g id="xtick_1">
     <g id="line2d_1">
      <defs>
       <path id="m8648a7d39f" d="M 0 0 
L 0 2.6 
" style="stroke: #000000; stroke-width: 0.6"/>
      </defs>
      <g>
       <use xlink:href="#m8648a7d39f" x="36.707555" y="143.730664" style="stroke: #000000; stroke-width: 0.6"/>
      </g>
     </g>
     <g id="text_1">
      <text style="font-size: 7px; font-family: 'Arial', 'Helvetica', 'DejaVu Sans'; text-anchor: middle" x="36.707555" y="154.926855" transform="rotate(-0 36.707555 154.926855)">2018</text>
     </g>
    </g>
    <g id="xtick_2">
     <g id="line2d_2">
      <g>
       <use xlink:href="#m8648a7d39f" x="91.709819" y="143.730664" style="stroke: #000000; stroke-width: 0.6"/>
      </g>
     </g>
     <g id="text_2">
      <text style="font-size: 7px; font-family: 'Arial', 'Helvetica', 'DejaVu Sans'; text-anchor: middle" x="91.709819" y="154.926855" transform="rotate(-0 91.709819 154.926855)">2019</text>
     </g>
    </g>
    <g id="xtick_3">
     <g id="line2d_3">
      <g>
       <use xlink:href="#m8648a7d39f" x="146.712082" y="143.730664" style="stroke: #000000; stroke-width: 0.6"/>
      </g>
     </g>
     <g id="text_3">
      <text style="font-size: 7px; font-family: 'Arial', 'Helvetica', 'DejaVu Sans'; text-anchor: middle" x="146.712082" y="154.926855" transform="rotate(-0 146.712082 154.926855)">2020</text>
     </g>
    </g>
    <g id="xtick_4">
     <g id="line2d_4">
      <g>
       <use xlink:href="#m8648a7d39f" x="201.714346" y="143.730664" style="stroke: #000000; stroke-width: 0.6"/>
      </g>
     </g>
     <g id="text_4">
      <text style="font-size: 7px; font-family: 'Arial', 'Helvetica', 'DejaVu Sans'; text-anchor: middle" x="201.714346" y="154.926855" transform="rotate(-0 201.714346 154.926855)">2021</text>
     </g>
    </g>
    <g id="xtick_5">
     <g id="line2d_5">
      <g>
       <use xlink:href="#m8648a7d39f" x="256.71661" y="143.730664" style="stroke: #000000; stroke-width: 0.6"/>
      </g>
     </g>
     <g id="text_5">
      <text style="font-size: 7px; font-family: 'Arial', 'Helvetica', 'DejaVu Sans'; text-anchor: middle" x="256.71661" y="154.926855" transform="rotate(-0 256.71661 154.926855)">2022</text>
     </g>
    </g>
    <g id="xtick_6">
     <g id="line2d_6">
      <g>
       <use xlink:href="#m8648a7d39f" x="311.718873" y="143.730664" style="stroke: #000000; stroke-width: 0.6"/>
      </g>
     </g>
     <g id="text_6">
      <text style="font-size: 7px; font-family: 'Arial', 'Helvetica', 'DejaVu Sans'; text-anchor: middle" x="311.718873" y="154.926855" transform="rotate(-0 311.718873 154.926855)">2023</text>
     </g>
    </g>
    <g id="xtick_7">
     <g id="line2d_7">
      <g>
       <use xlink:href="#m8648a7d39f" x="366.721137" y="143.730664" style="stroke: #000000; stroke-width: 0.6"/>
      </g>
     </g>
     <g id="text_7">
      <text style="font-size: 7px; font-family: 'Arial', 'Helvetica', 'DejaVu Sans'; text-anchor: middle" x="366.721137" y="154.926855" transform="rotate(-0 366.721137 154.926855)">2024</text>
     </g>
    </g>
    <g id="xtick_8">
     <g id="line2d_8">
      <g>
       <use xlink:href="#m8648a7d39f" x="421.7234" y="143.730664" style="stroke: #000000; stroke-width: 0.6"/>
      </g>
     </g>
     <g id="text_8">
      <text style="font-size: 7px; font-family: 'Arial', 'Helvetica', 'DejaVu Sans'; text-anchor: middle" x="421.7234" y="154.926855" transform="rotate(-0 421.7234 154.926855)">2025</text>
     </g>
    </g>
   </g>
   <g id="matplotlib.axis_2">
    <g id="ytick_1">
     <g id="line2d_9">
      <defs>
       <path id="m5615ce1df9" d="M 0 0 
L -2.6 0 
" style="stroke: #000000; stroke-width: 0.6"/>
      </defs>
      <g>
       <use xlink:href="#m5615ce1df9" x="32.124033" y="143.730664" style="stroke: #000000; stroke-width: 0.6"/>
      </g>
     </g>
     <g id="text_9">
      <text style="font-size: 7px; font-family: 'Arial', 'Helvetica', 'DejaVu Sans'; text-anchor: end" x="26.024033" y="146.27876" transform="rotate(-0 26.024033 146.27876)">0</text>
     </g>
    </g>
    <g id="ytick_2">
     <g id="line2d_10">
      <g>
       <use xlink:href="#m5615ce1df9" x="32.124033" y="117.1165" style="stroke: #000000; stroke-width: 0.6"/>
      </g>
     </g>
     <g id="text_10">
      <text style="font-size: 7px; font-family: 'Arial', 'Helvetica', 'DejaVu Sans'; text-anchor: end" x="26.024033" y="119.664595" transform="rotate(-0 26.024033 119.664595)">10</text>
     </g>
    </g>
    <g id="ytick_3">
     <g id="line2d_11">
      <g>
       <use xlink:href="#m5615ce1df9" x="32.124033" y="90.502335" style="stroke: #000000; stroke-width: 0.6"/>
      </g>
     </g>
     <g id="text_11">
      <text style="font-size: 7px; font-family: 'Arial', 'Helvetica', 'DejaVu Sans'; text-anchor: end" x="26.024033" y="93.050431" transform="rotate(-0 26.024033 93.050431)">20</text>
     </g>
    </g>
    <g id="ytick_4">
     <g id="line2d_12">
      <g>
       <use xlink:href="#m5615ce1df9" x="32.124033" y="63.88817" style="stroke: #000000; stroke-width: 0.6"/>
      </g>
     </g>
     <g id="text_12">
      <text style="font-size: 7px; font-family: 'Arial', 'Helvetica', 'DejaVu Sans'; text-anchor: end" x="26.024033" y="66.436266" transform="rotate(-0 26.024033 66.436266)">30</text>
     </g>
    </g>
    <g id="ytick_5">
     <g id="line2d_13">
      <g>
       <use xlink:href="#m5615ce1df9" x="32.124033" y="37.274006" style="stroke: #000000; stroke-width: 0.6"/>
      </g>
     </g>
     <g id="text_13">
      <text style="font-size: 7px; font-family: 'Arial', 'Helvetica', 'DejaVu Sans'; text-anchor: end" x="26.024033" y="39.822102" transform="rotate(-0 26.024033 39.822102)">40</text>
     </g>
    </g>
    <g id="ytick_6">
     <g id="line2d_14">
      <g>
       <use xlink:href="#m5615ce1df9" x="32.124033" y="10.659841" style="stroke: #000000; stroke-width: 0.6"/>
      </g>
     </g>
     <g id="text_14">
      <text style="font-size: 7px; font-family: 'Arial', 'Helvetica', 'DejaVu Sans'; text-anchor: end" x="26.024033" y="13.207937" transform="rotate(-0 26.024033 13.207937)">50</text>
     </g>
    </g>
    <g id="text_15">
     <text style="font-size: 7.5px; font-family: 'Arial', 'Helvetica', 'DejaVu Sans'; text-anchor: middle" x="12.660205" y="75.465332" transform="rotate(-90 12.660205 75.465332)">CATs por mês (n)</text>
    </g>
   </g>
   <g id="patch_4">
    <path d="M 32.124033 143.730664 
L 32.124033 7.2 
" style="fill: none; stroke: #000000; stroke-width: 0.6; stroke-linejoin: miter; stroke-linecap: square"/>
   </g>
   <g id="patch_5">
    <path d="M 32.124033 143.730664 
L 476.725664 143.730664 
" style="fill: none; stroke: #000000; stroke-width: 0.6; stroke-linejoin: miter; stroke-linecap: square"/>
   </g>
   <g id="text_16">
    <text style="font-size: 6.2px; font-family: 'Arial', 'Helvetica', 'DejaVu Sans'; text-anchor: middle; fill: #8c5a3a" x="204.006107" y="14.026533" transform="rotate(-0 204.006107 14.026533)">período crítico da covid-19</text>
   </g>
   <g id="line2d_15">
    <path d="M 36.707555 143.730664 
L 41.291077 143.730664 
L 45.874599 143.730664 
L 50.458121 143.730664 
L 55.041643 143.730664 
L 59.625165 138.407831 
L 64.208687 114.455083 
L 68.792209 87.840919 
L 73.375731 79.856669 
L 77.959253 95.825168 
L 82.542775 101.148001 
L 87.126297 125.100749 
L 91.709819 111.793667 
L 96.293341 106.470834 
L 100.876863 109.13225 
L 105.460385 79.856669 
L 110.043907 114.455083 
L 114.627429 101.148001 
L 119.210951 109.13225 
L 123.794473 109.13225 
L 128.377995 111.793667 
L 132.961516 98.486584 
L 137.545038 127.762165 
L 142.12856 114.455083 
L 146.712082 125.100749 
L 151.295604 119.777916 
L 155.879126 119.777916 
L 160.462648 125.100749 
L 165.04617 130.423582 
L 169.629692 103.809417 
L 174.213214 111.793667 
L 178.796736 106.470834 
L 183.380258 117.1165 
L 187.96378 114.455083 
L 192.547302 101.148001 
L 197.130824 90.502335 
L 201.714346 117.1165 
L 206.297868 109.13225 
L 210.88139 95.825168 
L 215.464912 106.470834 
L 220.048434 101.148001 
L 224.631956 87.840919 
L 229.215478 93.163751 
L 233.799 90.502335 
L 238.382522 106.470834 
L 242.966044 79.856669 
L 247.549566 101.148001 
L 252.133088 106.470834 
L 256.71661 143.730664 
L 261.300132 133.084998 
L 265.883654 85.179502 
L 270.467176 143.730664 
L 275.050697 138.407831 
L 279.634219 111.793667 
L 284.217741 111.793667 
L 288.801263 119.777916 
L 293.384785 111.793667 
L 297.968307 135.746415 
L 302.551829 141.069248 
L 307.135351 125.100749 
L 311.718873 125.100749 
L 316.302395 85.179502 
L 320.885917 82.518086 
L 325.469439 101.148001 
L 330.052961 95.825168 
L 334.636483 103.809417 
L 339.220005 98.486584 
L 343.803527 109.13225 
L 348.387049 114.455083 
L 352.970571 114.455083 
L 357.554093 106.470834 
L 362.137615 114.455083 
L 366.721137 119.777916 
L 371.304659 71.87242 
L 375.888181 85.179502 
L 380.471703 87.840919 
L 385.055225 93.163751 
L 389.638747 103.809417 
L 394.222269 87.840919 
L 398.805791 122.439332 
L 403.389313 143.730664 
L 407.972835 141.069248 
L 412.556357 130.423582 
L 417.139878 127.762165 
L 421.7234 135.746415 
L 426.306922 133.084998 
L 430.890444 119.777916 
L 435.473966 133.084998 
L 440.057488 122.439332 
L 444.64101 103.809417 
L 449.224532 23.966924 
L 453.808054 98.486584 
L 458.391576 117.1165 
L 462.975098 95.825168 
L 467.55862 143.730664 
L 472.142142 143.730664 
" clip-path="url(#p769bd00b3b)" style="fill: none; stroke: #2166ac; stroke-width: 1.1; stroke-linecap: round"/>
   </g>
   <g id="text_17">
    <text style="font-size: 6px; font-family: 'Arial', 'Helvetica', 'DejaVu Sans'; text-anchor: middle; fill: #b2182b" x="94.00158" y="112.253508" transform="rotate(-0 94.00158 112.253508)">média 10,7</text>
   </g>
   <g id="text_18">
    <text style="font-size: 6px; font-family: 'Arial', 'Helvetica', 'DejaVu Sans'; text-anchor: middle; fill: #b2182b" x="204.006107" y="102.140125" transform="rotate(-0 204.006107 102.140125)">média 14,5</text>
   </g>
   <g id="text_19">
    <text style="font-size: 6px; font-family: 'Arial', 'Helvetica', 'DejaVu Sans'; text-anchor: middle; fill: #b2182b" x="359.845854" y="109.059808" transform="rotate(-0 359.845854 109.059808)">média 11,9</text>
   </g>
   <g id="LineCollection_1">
    <path d="M 36.707555 115.253508 
L 151.295604 115.253508 
" clip-path="url(#p769bd00b3b)" style="fill: none; stroke-dasharray: 3.6,1.8; stroke-dashoffset: 0; stroke: #b2182b; stroke-width: 0.9"/>
   </g>
   <g id="LineCollection_2">
    <path d="M 155.879126 105.140125 
L 252.133088 105.140125 
" clip-path="url(#p769bd00b3b)" style="fill: none; stroke-dasharray: 3.6,1.8; stroke-dashoffset: 0; stroke: #b2182b; stroke-width: 0.9"/>
   </g>
   <g id="LineCollection_3">
    <path d="M 256.71661 112.059808 
L 462.975098 112.059808 
" clip-path="url(#p769bd00b3b)" style="fill: none; stroke-dasharray: 3.6,1.8; stroke-dashoffset: 0; stroke: #b2182b; stroke-width: 0.9"/>
   </g>
  </g>
 </g>
 <defs>
  <clipPath id="p769bd00b3b">
   <rect x="32.124033" y="7.2" width="444.601631" height="136.530664"/>
  </clipPath>
 </defs>
</svg>
