<?xml version="1.0" encoding="utf-8" standalone="no"?>
<!DOCTYPE svg PUBLIC "-//W3C//DTD SVG 1.1//EN"
  "http://www.w3.org/Graphics/SVG/1.1/DTD/svg11.dtd">
<svg xmlns:xlink="http://www.w3.org/1999/xlink" width="482.846385pt" height="192.4pt" viewBox="0 0 482.846385 192.4" xmlns="http://www.w3.org/2000/svg" version="1.1">
 <metadata>
  <rdf:RDF xmlns:dc="http://purl.org/dc/elements/1.1/" xmlns:cc="http://creativecommons.org/ns#" xmlns:rdf="http://www.w3.org/1999/02/22-rdf-syntax-ns#">
   <cc:Work>
    <dc:type rdf:resource="http://purl.org/dc/dcmitype/StillImage"/>
    <dc:date>2026-07-19T15:06:57.357211</dc:date>
    <dc:format>image/svg+xml</dc:format>
    <dc:creator>
     <cc:Agent>
      <dc:title>Matplotlib v3.11.0, https://matplotlib.org/</dc:title>
     </cc:Agent>
    </dc:creator>
   </cc:Work>
  </rdf:RDF>
 </metadata>
 <defs>
  <style type="text/css">*{stroke-linejoin: round; stroke-linecap: butt}</style>
 </defs>
 <g id="figure_1">
  <g id="patch_1">
   <path d="M 0 192.4 
L 482.846385 192.4 
L 482.846385 0 
L 0 0 
z
" style="fill: #ffffff"/>
  </g>
  <g id="axes_1">
   <g id="patch_2">
    <path d="M 32.124033 172.530664 
L 474.901706 172.530664 
L 474.901706 7.2 
L 32.124033 7.2 
z
" style="fill: #ffffff"/>
   </g>
   <g id="patch_3">
    <path d="M 164.615971 172.530664 
L 259.913447 172.530664 
L 259.913447 7.2 
L 164.615971 7.2 
z
" clip-path="url(#pc04d4d5eaf)" style="fill: #f5e1d3; opacity: 0.4"/>
   </g>
   <g id="FillBetweenPolyCollection_1">
    <defs>
     <path id="ma6f66b16b9" d="M 52.250291 -86.893047 
L 52.250291 -42.155588 
L 56.659577 -43.740936 
L 60.642158 -45.4241 
L 65.051444 -47.055398 
L 69.318496 -48.638249 
L 73.727782 -50.174906 
L 77.994833 -51.669939 
L 82.404119 -53.143024 
L 86.813405 -53.888847 
L 91.080456 -54.322692 
L 95.489743 -54.966584 
L 99.756794 -55.577225 
L 104.16608 -56.253353 
L 108.575366 -56.569699 
L 112.557947 -56.705937 
L 116.967233 -57.487496 
L 121.234285 -57.969438 
L 125.643571 -58.19393 
L 129.910622 -58.056061 
L 134.319908 -57.279267 
L 138.729194 -57.241732 
L 142.996245 -57.582134 
L 147.405531 -57.844242 
L 151.672583 -57.699383 
L 156.081869 -57.144758 
L 160.491155 -56.487419 
L 164.615971 -56.23894 
L 169.025257 -55.442726 
L 173.292308 -54.202822 
L 177.701595 -53.958909 
L 181.968646 -53.873052 
L 186.377932 -54.050568 
L 190.787218 -54.299469 
L 195.054269 -55.464836 
L 199.463555 -56.27207 
L 203.730607 -56.860187 
L 208.139893 -57.240871 
L 212.549179 -57.701547 
L 216.53176 -57.218318 
L 220.941046 -57.093605 
L 225.208097 -57.078432 
L 229.617383 -57.422044 
L 233.884435 -57.98325 
L 238.293721 -57.76371 
L 242.703007 -57.444489 
L 246.970058 -57.098132 
L 251.379344 -57.0986 
L 255.646395 -57.128487 
L 260.055682 -56.723164 
L 264.464968 -56.995331 
L 268.447549 -57.268193 
L 272.856835 -57.758134 
L 277.123886 -57.749592 
L 281.533172 -57.615497 
L 285.800223 -57.30655 
L 290.20951 -57.233257 
L 294.618796 -56.40453 
L 298.885847 -55.8709 
L 303.295133 -55.803479 
L 307.562184 -55.631255 
L 311.97147 -55.268138 
L 316.380757 -55.568253 
L 320.363338 -55.77689 
L 324.772624 -56.364428 
L 329.039675 -57.059116 
L 333.448961 -56.860241 
L 337.716012 -56.775669 
L 342.125299 -56.853335 
L 346.534585 -56.341356 
L 350.801636 -55.758885 
L 355.210922 -54.810766 
L 359.477973 -55.360627 
L 363.887259 -55.211473 
L 368.296545 -54.998538 
L 372.421362 -54.326929 
L 376.830648 -54.4602 
L 381.097699 -54.469067 
L 385.506985 -54.820106 
L 389.774036 -54.733141 
L 394.183322 -55.101839 
L 398.592609 -55.534984 
L 402.85966 -55.605057 
L 407.268946 -55.446708 
L 411.535997 -55.255947 
L 415.945283 -54.988977 
L 420.354569 -54.052208 
L 424.33715 -53.062239 
L 428.746437 -52.441784 
L 433.013488 -51.860412 
L 437.422774 -51.426755 
L 441.689825 -50.459414 
L 446.099111 -48.9898 
L 450.508397 -47.531225 
L 454.775449 -46.360788 
L 454.775449 -86.792582 
L 454.775449 -86.792582 
L 450.508397 -85.820351 
L 446.099111 -84.875788 
L 441.689825 -83.096218 
L 437.422774 -82.05536 
L 433.013488 -81.364069 
L 428.746437 -80.291837 
L 424.33715 -79.731603 
L 420.354569 -79.274246 
L 415.945283 -78.989301 
L 411.535997 -78.565538 
L 407.268946 -78.214135 
L 402.85966 -78.045838 
L 398.592609 -77.64374 
L 394.183322 -77.918126 
L 389.774036 -78.150578 
L 385.506985 -78.22531 
L 381.097699 -77.80173 
L 376.830648 -77.791377 
L 372.421362 -78.123546 
L 368.296545 -77.607564 
L 363.887259 -77.438814 
L 359.477973 -77.280185 
L 355.210922 -77.129858 
L 350.801636 -76.912215 
L 346.534585 -76.621279 
L 342.125299 -77.119448 
L 337.716012 -77.128758 
L 333.448961 -76.663621 
L 329.039675 -77.274316 
L 324.772624 -77.601982 
L 320.363338 -77.58449 
L 316.380757 -77.946713 
L 311.97147 -77.887051 
L 307.562184 -77.748303 
L 303.295133 -77.790276 
L 298.885847 -77.728879 
L 294.618796 -77.88258 
L 290.20951 -77.711948 
L 285.800223 -77.264002 
L 281.533172 -76.886831 
L 277.123886 -76.45821 
L 272.856835 -76.504672 
L 268.447549 -77.011075 
L 264.464968 -76.888108 
L 260.055682 -77.113775 
L 255.646395 -77.460317 
L 251.379344 -77.211695 
L 246.970058 -76.595532 
L 242.703007 -76.760275 
L 238.293721 -76.453899 
L 233.884435 -76.750334 
L 229.617383 -77.409733 
L 225.208097 -78.016312 
L 220.941046 -78.466942 
L 216.53176 -78.679695 
L 212.549179 -78.752889 
L 208.139893 -78.398882 
L 203.730607 -78.008566 
L 199.463555 -78.299622 
L 195.054269 -78.336258 
L 190.787218 -78.45391 
L 186.377932 -77.776568 
L 181.968646 -76.986531 
L 177.701595 -76.741389 
L 173.292308 -76.844951 
L 169.025257 -76.427063 
L 164.615971 -76.538693 
L 160.491155 -76.576225 
L 156.081869 -77.043687 
L 151.672583 -77.394294 
L 147.405531 -77.622981 
L 142.996245 -77.258956 
L 138.729194 -77.144424 
L 134.319908 -77.831788 
L 129.910622 -78.030909 
L 125.643571 -77.890157 
L 121.234285 -77.588341 
L 116.967233 -76.785453 
L 112.557947 -76.371076 
L 108.575366 -76.088292 
L 104.16608 -75.99258 
L 99.756794 -75.833918 
L 95.489743 -76.59538 
L 91.080456 -76.823745 
L 86.813405 -76.720576 
L 82.404119 -77.673008 
L 77.994833 -78.751355 
L 73.727782 -79.850876 
L 69.318496 -81.119214 
L 65.051444 -82.35895 
L 60.642158 -83.562872 
L 56.659577 -84.720107 
L 52.250291 -86.893047 
z
"/>
    </defs>
    <g clip-path="url(#pc04d4d5eaf)">
     <use xlink:href="#ma6f66b16b9" x="0" y="192.4" style="fill: #2166ac; fill-opacity: 0.18"/>
    </g>
   </g>
   <g id="matplotlib.axis_1">
    <g id="xtick_1">
     <g id="line2d_1">
      <defs>
       <path id="m65cd32ce90" d="M 0 0 
L 0 2.6 
" style="stroke: #000000; stroke-width: 0.6"/>
      </defs>
      <g>
       <use xlink:href="#m65cd32ce90" x="52.250291" y="172.530664" style="stroke: #000000; stroke-width: 0.6"/>
      </g>
     </g>
     <g id="text_1">
      <text style="font-size: 7px; font-family: 'Arial', 'Helvetica', 'DejaVu Sans'; text-anchor: middle" x="52.250291" y="183.726855" transform="rotate(-0 52.250291 183.726855)">2018</text>
     </g>
    </g>
    <g id="xtick_2">
     <g id="line2d_2">
      <g>
       <use xlink:href="#m65cd32ce90" x="104.16608" y="172.530664" style="stroke: #000000; stroke-width: 0.6"/>
      </g>
     </g>
     <g id="text_2">
      <text style="font-size: 7px; font-family: 'Arial', 'Helvetica', 'DejaVu Sans'; text-anchor: middle" x="104.16608" y="183.726855" transform="rotate(-0 104.16608 183.726855)">2019</text>
     </g>
    </g>
    <g id="xtick_3">
     <g id="line2d_3">
      <g>
       <use xlink:href="#m65cd32ce90" x="156.081869" y="172.530664" style="stroke: #000000; stroke-width: 0.6"/>
      </g>
     </g>
     <g id="text_3">
      <text style="font-size: 7px; font-family: 'Arial', 'Helvetica', 'DejaVu Sans'; text-anchor: middle" x="156.081869" y="183.726855" transform="rotate(-0 156.081869 183.726855)">2020</text>
     </g>
    </g>
    <g id="xtick_4">
     <g id="line2d_4">
      <g>
       <use xlink:href="#m65cd32ce90" x="208.139893" y="172.530664" style="stroke: #000000; stroke-width: 0.6"/>
      </g>
     </g>
     <g id="text_4">
      <text style="font-size: 7px; font-family: 'Arial', 'Helvetica', 'DejaVu Sans'; text-anchor: middle" x="208.139893" y="183.726855" transform="rotate(-0 208.139893 183.726855)">2021</text>
     </g>
    </g>
    <g id="xtick_5">
     <g id="line2d_5">
      <g>
       <use xlink:href="#m65cd32ce90" x="260.055682" y="172.530664" style="stroke: #000000; stroke-width: 0.6"/>
      </g>
     </g>
     <g id="text_5">
      <text style="font-size: 7px; font-family: 'Arial', 'Helvetica', 'DejaVu Sans'; text-anchor: middle" x="260.055682" y="183.726855" transform="rotate(-0 260.055682 183.726855)">2022</text>
     </g>
    </g>
    <g id="xtick_6">
     <g id="line2d_6">
      <g>
       <use xlink:href="#m65cd32ce90" x="311.97147" y="172.530664" style="stroke: #000000; stroke-width: 0.6"/>
      </g>
     </g>
     <g id="text_6">
      <text style="font-size: 7px; font-family: 'Arial', 'Helvetica', 'DejaVu Sans'; text-anchor: middle" x="311.97147" y="183.726855" transform="rotate(-0 311.97147 183.726855)">2023</text>
     </g>
    </g>
    <g id="xtick_7">
     <g id="line2d_7">
      <g>
       <use xlink:href="#m65cd32ce90" x="363.887259" y="172.530664" style="stroke: #000000; stroke-width: 0.6"/>
      </g>
     </g>
     <g id="text_7">
      <text style="font-size: 7px; font-family: 'Arial', 'Helvetica', 'DejaVu Sans'; text-anchor: middle" x="363.887259" y="183.726855" transform="rotate(-0 363.887259 183.726855)">2024</text>
     </g>
    </g>
    <g id="xtick_8">
     <g id="line2d_8">
      <g>
       <use xlink:href="#m65cd32ce90" x="415.945283" y="172.530664" style="stroke: #000000; stroke-width: 0.6"/>
      </g>
     </g>
     <g id="text_8">
      <text style="font-size: 7px; font-family: 'Arial', 'Helvetica', 'DejaVu Sans'; text-anchor: middle" x="415.945283" y="183.726855" transform="rotate(-0 415.945283 183.726855)">2025</text>
     </g>
    </g>
    <g id="xtick_9">
     <g id="line2d_9">
      <g>
       <use xlink:href="#m65cd32ce90" x="467.861072" y="172.530664" style="stroke: #000000; stroke-width: 0.6"/>
      </g>
     </g>
     <g id="text_9">
      <text style="font-size: 7px; font-family: 'Arial', 'Helvetica', 'DejaVu Sans'; text-anchor: middle" x="467.861072" y="183.726855" transform="rotate(-0 467.861072 183.726855)">2026</text>
     </g>
    </g>
   </g>
   <g id="matplotlib.axis_2">
    <g id="ytick_1">
     <g id="line2d_10">
      <defs>
       <path id="m066c063542" d="M 0 0 
L -2.6 0 
" style="stroke: #000000; stroke-width: 0.6"/>
      </defs>
      <g>
       <use xlink:href="#m066c063542" x="32.124033" y="165.015634" style="stroke: #000000; stroke-width: 0.6"/>
      </g>
     </g>
     <g id="text_10">
      <text style="font-size: 7px; font-family: 'Arial', 'Helvetica', 'DejaVu Sans'; text-anchor: end" x="26.024033" y="167.56373" transform="rotate(-0 26.024033 167.56373)">0</text>
     </g>
    </g>
    <g id="ytick_2">
     <g id="line2d_11">
      <g>
       <use xlink:href="#m066c063542" x="32.124033" y="131.6155" style="stroke: #000000; stroke-width: 0.6"/>
      </g>
     </g>
     <g id="text_11">
      <text style="font-size: 7px; font-family: 'Arial', 'Helvetica', 'DejaVu Sans'; text-anchor: end" x="26.024033" y="134.163595" transform="rotate(-0 26.024033 134.163595)">10</text>
     </g>
    </g>
    <g id="ytick_3">
     <g id="line2d_12">
      <g>
       <use xlink:href="#m066c063542" x="32.124033" y="98.215366" style="stroke: #000000; stroke-width: 0.6"/>
      </g>
     </g>
     <g id="text_12">
      <text style="font-size: 7px; font-family: 'Arial', 'Helvetica', 'DejaVu Sans'; text-anchor: end" x="26.024033" y="100.763461" transform="rotate(-0 26.024033 100.763461)">20</text>
     </g>
    </g>
    <g id="ytick_4">
     <g id="line2d_13">
      <g>
       <use xlink:href="#m066c063542" x="32.124033" y="64.815231" style="stroke: #000000; stroke-width: 0.6"/>
      </g>
     </g>
     <g id="text_13">
      <text style="font-size: 7px; font-family: 'Arial', 'Helvetica', 'DejaVu Sans'; text-anchor: end" x="26.024033" y="67.363327" transform="rotate(-0 26.024033 67.363327)">30</text>
     </g>
    </g>
    <g id="ytick_5">
     <g id="line2d_14">
      <g>
       <use xlink:href="#m066c063542" x="32.124033" y="31.415097" style="stroke: #000000; stroke-width: 0.6"/>
      </g>
     </g>
     <g id="text_14">
      <text style="font-size: 7px; font-family: 'Arial', 'Helvetica', 'DejaVu Sans'; text-anchor: end" x="26.024033" y="33.963193" transform="rotate(-0 26.024033 33.963193)">40</text>
     </g>
    </g>
    <g id="text_15">
     <text style="font-size: 7.5px; font-family: 'Arial', 'Helvetica', 'DejaVu Sans'; text-anchor: middle" x="12.660205" y="89.865332" transform="rotate(-90 12.660205 89.865332)">CATs por mês (n)</text>
    </g>
   </g>
   <g id="line2d_15">
    <path d="M 52.250291 165.015634 
L 56.659577 165.015634 
L 60.642158 165.015634 
L 65.051444 165.015634 
L 69.318496 165.015634 
L 73.727782 158.335607 
L 77.994833 128.275486 
L 82.404119 94.875352 
L 86.813405 84.855312 
L 91.080456 104.895392 
L 95.489743 111.575419 
L 99.756794 141.63554 
L 104.16608 124.935473 
L 108.575366 118.255446 
L 112.557947 121.595459 
L 116.967233 84.855312 
L 121.234285 128.275486 
L 125.643571 111.575419 
L 129.910622 121.595459 
L 134.319908 121.595459 
L 138.729194 124.935473 
L 142.996245 108.235406 
L 147.405531 144.975553 
L 151.672583 128.275486 
L 156.081869 141.63554 
L 160.491155 134.955513 
L 164.615971 134.955513 
L 169.025257 141.63554 
L 173.292308 148.315567 
L 177.701595 114.915433 
L 181.968646 124.935473 
L 186.377932 118.255446 
L 190.787218 131.6155 
L 195.054269 128.275486 
L 199.463555 111.575419 
L 203.730607 98.215366 
L 208.139893 131.6155 
L 212.549179 121.595459 
L 216.53176 104.895392 
L 220.941046 118.255446 
L 225.208097 111.575419 
L 229.617383 94.875352 
L 233.884435 101.555379 
L 238.293721 98.215366 
L 242.703007 118.255446 
L 246.970058 84.855312 
L 251.379344 111.575419 
L 255.646395 118.255446 
L 260.055682 165.015634 
L 264.464968 151.65558 
L 268.447549 91.535339 
L 272.856835 165.015634 
L 277.123886 158.335607 
L 281.533172 124.935473 
L 285.800223 124.935473 
L 290.20951 134.955513 
L 294.618796 124.935473 
L 298.885847 154.995594 
L 303.295133 161.67562 
L 307.562184 141.63554 
L 311.97147 141.63554 
L 316.380757 91.535339 
L 320.363338 88.195325 
L 324.772624 111.575419 
L 329.039675 104.895392 
L 333.448961 114.915433 
L 337.716012 108.235406 
L 342.125299 121.595459 
L 346.534585 128.275486 
L 350.801636 128.275486 
L 355.210922 118.255446 
L 359.477973 128.275486 
L 363.887259 134.955513 
L 368.296545 74.835272 
L 372.421362 91.535339 
L 376.830648 94.875352 
L 381.097699 101.555379 
L 385.506985 114.915433 
L 389.774036 94.875352 
L 394.183322 138.295527 
L 398.592609 165.015634 
L 402.85966 161.67562 
L 407.268946 148.315567 
L 411.535997 144.975553 
L 415.945283 154.995594 
L 420.354569 151.65558 
L 424.33715 134.955513 
L 428.746437 151.65558 
L 433.013488 138.295527 
L 437.422774 114.915433 
L 441.689825 14.71503 
L 446.099111 108.235406 
L 450.508397 131.6155 
L 454.775449 104.895392 
" clip-path="url(#pc04d4d5eaf)" style="fill: none; stroke: #bdbdbd; stroke-opacity: 0.7; stroke-width: 0.6; stroke-linecap: square"/>
   </g>
   <g id="line2d_16">
    <path d="M 52.250291 160.788527 
L 56.659577 157.530791 
L 60.642158 154.356823 
L 65.051444 151.273058 
L 69.318496 148.282191 
L 73.727782 145.381442 
L 77.994833 142.560762 
L 82.404119 139.802586 
L 86.813405 137.085465 
L 91.080456 134.384952 
L 95.489743 131.670213 
L 99.756794 128.899831 
L 104.16608 126.025491 
L 108.575366 123.106833 
L 112.557947 121.992886 
L 116.967233 121.5227 
L 121.234285 121.707921 
L 125.643571 122.426292 
L 129.910622 123.444221 
L 134.319908 124.49655 
L 138.729194 125.402647 
L 142.996245 126.112917 
L 147.405531 126.645604 
L 151.672583 127.037287 
L 156.081869 127.341262 
L 160.491155 127.565487 
L 164.615971 127.641075 
L 169.025257 127.525523 
L 173.292308 127.19645 
L 177.701595 126.619589 
L 181.968646 125.768796 
L 186.377932 124.62367 
L 190.787218 123.224309 
L 195.054269 121.611657 
L 199.463555 119.866091 
L 203.730607 118.118939 
L 208.139893 116.550421 
L 212.549179 115.30148 
L 216.53176 114.425584 
L 220.941046 113.981318 
L 225.208097 114.02648 
L 229.617383 114.522709 
L 233.884435 115.343681 
L 238.293721 116.357171 
L 242.703007 117.47928 
L 246.970058 118.711457 
L 251.379344 120.096853 
L 255.646395 121.647992 
L 260.055682 123.345823 
L 264.464968 125.124187 
L 268.447549 126.877604 
L 272.856835 128.440321 
L 277.123886 129.675792 
L 281.533172 130.499106 
L 285.800223 130.841455 
L 290.20951 130.712182 
L 294.618796 130.193423 
L 298.885847 129.379874 
L 303.295133 128.368696 
L 307.562184 127.26761 
L 311.97147 126.193178 
L 316.380757 125.164798 
L 320.363338 124.110858 
L 324.772624 122.913773 
L 329.039675 121.534879 
L 333.448961 120.03563 
L 337.716012 118.452478 
L 342.125299 116.928501 
L 346.534585 115.729878 
L 350.801636 115.115267 
L 355.210922 115.234329 
L 359.477973 116.09621 
L 363.887259 117.570474 
L 368.296545 119.437723 
L 372.421362 121.431719 
L 376.830648 123.350484 
L 381.097699 125.092215 
L 385.506985 126.613743 
L 389.774036 127.958331 
L 394.183322 129.181776 
L 398.592609 130.346914 
L 402.85966 130.958526 
L 407.268946 131.332429 
L 411.535997 131.680904 
L 415.945283 132.033077 
L 420.354569 132.374711 
L 424.33715 132.682491 
L 428.746437 132.932637 
L 433.013488 133.104292 
L 437.422774 133.177289 
L 441.689825 133.134898 
L 446.099111 132.967435 
L 450.508397 132.669963 
L 454.775449 132.244535 
" clip-path="url(#pc04d4d5eaf)" style="fill: none; stroke: #2166ac; stroke-width: 1.8; stroke-linecap: square"/>
   </g>
   <g id="patch_4">
    <path d="M 32.124033 172.530664 
L 32.124033 7.2 
" style="fill: none; stroke: #000000; stroke-width: 0.6; stroke-linejoin: miter; stroke-linecap: square"/>
   </g>
   <g id="patch_5">
    <path d="M 32.124033 172.530664 
L 474.901706 172.530664 
" style="fill: none; stroke: #000000; stroke-width: 0.6; stroke-linejoin: miter; stroke-linecap: square"/>
   </g>
   <g id="legend_1">
    <g id="line2d_17">
     <path d="M 37.704033 15.12377 
L 43.904033 15.12377 
L 50.104033 15.12377 
" style="fill: none; stroke: #bdbdbd; stroke-opacity: 0.7; stroke-width: 0.6; stroke-linecap: square"/>
    </g>
    <g id="text_16">
     <text style="font-size: 6.2px; font-family: 'Arial', 'Helvetica', 'DejaVu Sans'; text-anchor: start" x="55.064033" y="17.29377" transform="rotate(-0 55.064033 17.29377)">CATs mensais</text>
    </g>
    <g id="line2d_18">
     <path d="M 37.704033 24.045836 
L 43.904033 24.045836 
L 50.104033 24.045836 
" style="fill: none; stroke: #2166ac; stroke-width: 1.8; stroke-linecap: square"/>
    </g>
    <g id="text_17">
     <text style="font-size: 6.2px; font-family: 'Arial', 'Helvetica', 'DejaVu Sans'; text-anchor: start" x="55.064033" y="26.215836" transform="rotate(-0 55.064033 26.215836)">Tendência LOESS (fração=0,30)</text>
    </g>
    <g id="patch_6">
     <path d="M 37.704033 35.134512 
L 50.104033 35.134512 
L 50.104033 30.794512 
L 37.704033 30.794512 
z
" style="fill: #f5e1d3; opacity: 0.4"/>
    </g>
    <g id="text_18">
     <text style="font-size: 6.2px; font-family: 'Arial', 'Helvetica', 'DejaVu Sans'; text-anchor: start" x="55.064033" y="35.134512" transform="rotate(-0 55.064033 35.134512)">Período crítico covid-19</text>
    </g>
   </g>
  </g>
 </g>
 <defs>
  <clipPath id="pc04d4d5eaf">
   <rect x="32.124033" y="7.2" width="442.777673" height="165.330664"/>
  </clipPath>
 </defs>
</svg>
