<?xml version="1.0" encoding="utf-8" standalone="no"?>
<!DOCTYPE svg PUBLIC "-//W3C//DTD SVG 1.1//EN"
  "http://www.w3.org/Graphics/SVG/1.1/DTD/svg11.dtd">
<svg xmlns:xlink="http://www.w3.org/1999/xlink" width="483.925664pt" height="181.6pt" viewBox="0 0 483.925664 181.6" xmlns="http://www.w3.org/2000/svg" version="1.1">
 <metadata>
  <rdf:RDF xmlns:dc="http://purl.org/dc/elements/1.1/" xmlns:cc="http://creativecommons.org/ns#" xmlns:rdf="http://www.w3.org/1999/02/22-rdf-syntax-ns#">
   <cc:Work>
    <dc:type rdf:resource="http://purl.org/dc/dcmitype/StillImage"/>
    <dc:date>2026-07-19T15:06:58.876285</dc:date>
    <dc:format>image/svg+xml</dc:format>
    <dc:creator>
     <cc:Agent>
      <dc:title>Matplotlib v3.11.0, https://matplotlib.org/</dc:title>
     </cc:Agent>
    </dc:creator>
   </cc:Work>
  </rdf:RDF>
 </metadata>
 <defs>
  <style type="text/css">*{stroke-linejoin: round; stroke-linecap: butt}</style>
 </defs>
 <g id="figure_1">
  <g id="patch_1">
   <path d="M 0 181.6 
L 483.925664 181.6 
L 483.925664 0 
L 0 0 
z
" style="fill: #ffffff"/>
  </g>
  <g id="axes_1">
   <g id="patch_2">
    <path d="M 32.124033 161.730664 
L 476.725664 161.730664 
L 476.725664 7.2 
L 32.124033 7.2 
z
" style="fill: #ffffff"/>
   </g>
   <g id="FillBetweenPolyCollection_1">
    <defs>
     <path id="m88c82ffd42" d="M 381.309133 -117.579963 
L 381.309133 -45.062948 
L 388.289457 -37.187038 
L 394.594266 -30.562874 
L 401.574591 -28.995237 
L 408.329743 -31.508616 
L 415.310068 -26.893457 
L 422.06522 -29.497426 
L 429.045545 -34.586252 
L 436.025869 -57.439505 
L 442.781022 -35.837364 
L 449.761346 -30.396229 
L 456.516499 -36.494817 
L 456.516499 -122.545278 
L 456.516499 -122.545278 
L 449.761346 -116.446004 
L 442.781022 -121.8854 
L 436.025869 -143.483127 
L 429.045545 -120.618681 
L 422.06522 -115.50146 
L 415.310068 -112.825438 
L 408.329743 -117.257586 
L 401.574591 -114.278303 
L 394.594266 -114.652765 
L 388.289457 -118.172077 
L 381.309133 -117.579963 
z
"/>
    </defs>
    <g clip-path="url(#pd5992f35ea)">
     <use xlink:href="#m88c82ffd42" x="0" y="181.6" style="fill: #b2182b; fill-opacity: 0.2"/>
    </g>
   </g>
   <g id="matplotlib.axis_1">
    <g id="xtick_1">
     <g id="line2d_1">
      <defs>
       <path id="m596b649114" d="M 0 0 
L 0 2.6 
" style="stroke: #000000; stroke-width: 0.6"/>
      </defs>
      <g>
       <use xlink:href="#m596b649114" x="52.333198" y="161.730664" style="stroke: #000000; stroke-width: 0.6"/>
      </g>
     </g>
     <g id="text_1">
      <text style="font-size: 7px; font-family: 'Arial', 'Helvetica', 'DejaVu Sans'; text-anchor: middle" x="52.333198" y="172.926855" transform="rotate(-0 52.333198 172.926855)">2022</text>
     </g>
    </g>
    <g id="xtick_2">
     <g id="line2d_2">
      <g>
       <use xlink:href="#m596b649114" x="134.520889" y="161.730664" style="stroke: #000000; stroke-width: 0.6"/>
      </g>
     </g>
     <g id="text_2">
      <text style="font-size: 7px; font-family: 'Arial', 'Helvetica', 'DejaVu Sans'; text-anchor: middle" x="134.520889" y="172.926855" transform="rotate(-0 134.520889 172.926855)">2023</text>
     </g>
    </g>
    <g id="xtick_3">
     <g id="line2d_3">
      <g>
       <use xlink:href="#m596b649114" x="216.70858" y="161.730664" style="stroke: #000000; stroke-width: 0.6"/>
      </g>
     </g>
     <g id="text_3">
      <text style="font-size: 7px; font-family: 'Arial', 'Helvetica', 'DejaVu Sans'; text-anchor: middle" x="216.70858" y="172.926855" transform="rotate(-0 216.70858 172.926855)">2024</text>
     </g>
    </g>
    <g id="xtick_4">
     <g id="line2d_4">
      <g>
       <use xlink:href="#m596b649114" x="299.121442" y="161.730664" style="stroke: #000000; stroke-width: 0.6"/>
      </g>
     </g>
     <g id="text_4">
      <text style="font-size: 7px; font-family: 'Arial', 'Helvetica', 'DejaVu Sans'; text-anchor: middle" x="299.121442" y="172.926855" transform="rotate(-0 299.121442 172.926855)">2025</text>
     </g>
    </g>
    <g id="xtick_5">
     <g id="line2d_5">
      <g>
       <use xlink:href="#m596b649114" x="381.309133" y="161.730664" style="stroke: #000000; stroke-width: 0.6"/>
      </g>
     </g>
     <g id="text_5">
      <text style="font-size: 7px; font-family: 'Arial', 'Helvetica', 'DejaVu Sans'; text-anchor: middle" x="381.309133" y="172.926855" transform="rotate(-0 381.309133 172.926855)">2026</text>
     </g>
    </g>
    <g id="xtick_6">
     <g id="line2d_6">
      <g>
       <use xlink:href="#m596b649114" x="463.496823" y="161.730664" style="stroke: #000000; stroke-width: 0.6"/>
      </g>
     </g>
     <g id="text_6">
      <text style="font-size: 7px; font-family: 'Arial', 'Helvetica', 'DejaVu Sans'; text-anchor: middle" x="463.496823" y="172.926855" transform="rotate(-0 463.496823 172.926855)">2027</text>
     </g>
    </g>
   </g>
   <g id="matplotlib.axis_2">
    <g id="ytick_1">
     <g id="line2d_7">
      <defs>
       <path id="m9f981a2922" d="M 0 0 
L -2.6 0 
" style="stroke: #000000; stroke-width: 0.6"/>
      </defs>
      <g>
       <use xlink:href="#m9f981a2922" x="32.124033" y="143.753473" style="stroke: #000000; stroke-width: 0.6"/>
      </g>
     </g>
     <g id="text_7">
      <text style="font-size: 7px; font-family: 'Arial', 'Helvetica', 'DejaVu Sans'; text-anchor: end" x="26.024033" y="146.301569" transform="rotate(-0 26.024033 146.301569)">0</text>
     </g>
    </g>
    <g id="ytick_2">
     <g id="line2d_8">
      <g>
       <use xlink:href="#m9f981a2922" x="32.124033" y="114.969172" style="stroke: #000000; stroke-width: 0.6"/>
      </g>
     </g>
     <g id="text_8">
      <text style="font-size: 7px; font-family: 'Arial', 'Helvetica', 'DejaVu Sans'; text-anchor: end" x="26.024033" y="117.517268" transform="rotate(-0 26.024033 117.517268)">10</text>
     </g>
    </g>
    <g id="ytick_3">
     <g id="line2d_9">
      <g>
       <use xlink:href="#m9f981a2922" x="32.124033" y="86.184872" style="stroke: #000000; stroke-width: 0.6"/>
      </g>
     </g>
     <g id="text_9">
      <text style="font-size: 7px; font-family: 'Arial', 'Helvetica', 'DejaVu Sans'; text-anchor: end" x="26.024033" y="88.732968" transform="rotate(-0 26.024033 88.732968)">20</text>
     </g>
    </g>
    <g id="ytick_4">
     <g id="line2d_10">
      <g>
       <use xlink:href="#m9f981a2922" x="32.124033" y="57.400572" style="stroke: #000000; stroke-width: 0.6"/>
      </g>
     </g>
     <g id="text_10">
      <text style="font-size: 7px; font-family: 'Arial', 'Helvetica', 'DejaVu Sans'; text-anchor: end" x="26.024033" y="59.948667" transform="rotate(-0 26.024033 59.948667)">30</text>
     </g>
    </g>
    <g id="ytick_5">
     <g id="line2d_11">
      <g>
       <use xlink:href="#m9f981a2922" x="32.124033" y="28.616271" style="stroke: #000000; stroke-width: 0.6"/>
      </g>
     </g>
     <g id="text_11">
      <text style="font-size: 7px; font-family: 'Arial', 'Helvetica', 'DejaVu Sans'; text-anchor: end" x="26.024033" y="31.164367" transform="rotate(-0 26.024033 31.164367)">40</text>
     </g>
    </g>
    <g id="text_12">
     <text style="font-size: 7.5px; font-family: 'Arial', 'Helvetica', 'DejaVu Sans'; text-anchor: middle" x="12.660205" y="84.465332" transform="rotate(-90 12.660205 84.465332)">CATs por mês (n)</text>
    </g>
   </g>
   <g id="line2d_12">
    <path d="M 52.333198 143.753473 
L 59.313523 132.239753 
L 65.618332 80.428012 
L 72.598656 143.753473 
L 79.353809 137.996613 
L 86.334133 109.212312 
L 93.089286 109.212312 
L 100.06961 117.847602 
L 107.049935 109.212312 
L 113.805087 135.118183 
L 120.785412 140.875043 
L 127.540565 123.604463 
L 134.520889 123.604463 
L 141.501213 80.428012 
L 147.806022 77.549582 
L 154.786347 97.698592 
L 161.5415 91.941732 
L 168.521824 100.577022 
L 175.276977 94.820162 
L 182.257301 106.333882 
L 189.237625 112.090742 
L 195.992778 112.090742 
L 202.973103 103.455452 
L 209.728255 112.090742 
L 216.70858 117.847602 
L 223.688904 66.035862 
L 230.218885 80.428012 
L 237.199209 83.306442 
L 243.954362 89.063302 
L 250.934686 100.577022 
L 257.689839 83.306442 
L 264.670163 120.726033 
L 271.650488 143.753473 
L 278.405641 140.875043 
L 285.385965 129.361323 
L 292.141118 126.482893 
L 299.121442 135.118183 
L 306.101766 132.239753 
L 312.406576 117.847602 
L 319.3869 132.239753 
L 326.142053 120.726033 
L 333.122377 100.577022 
L 339.87753 14.224121 
L 346.857854 94.820162 
L 353.838179 114.969172 
L 360.593331 91.941732 
" clip-path="url(#pd5992f35ea)" style="fill: none; stroke: #2166ac; stroke-linecap: square"/>
   </g>
   <g id="line2d_13">
    <path d="M 381.309133 100.278544 
L 388.289457 103.920442 
L 394.594266 108.992181 
L 401.574591 109.96323 
L 408.329743 107.216899 
L 415.310068 111.740553 
L 422.06522 109.100557 
L 429.045545 103.997534 
L 436.025869 81.138684 
L 442.781022 102.738618 
L 449.761346 108.178883 
L 456.516499 102.079953 
" clip-path="url(#pd5992f35ea)" style="fill: none; stroke-dasharray: 4.44,1.92; stroke-dashoffset: 0; stroke: #b2182b; stroke-width: 1.2"/>
   </g>
   <g id="line2d_14">
    <path d="M 381.309133 161.730664 
L 381.309133 7.2 
" clip-path="url(#pd5992f35ea)" style="fill: none; stroke-dasharray: 0.6,0.99; stroke-dashoffset: 0; stroke: #757575; stroke-width: 0.6"/>
   </g>
   <g id="patch_3">
    <path d="M 32.124033 161.730664 
L 32.124033 7.2 
" style="fill: none; stroke: #000000; stroke-width: 0.6; stroke-linejoin: miter; stroke-linecap: square"/>
   </g>
   <g id="patch_4">
    <path d="M 32.124033 161.730664 
L 476.725664 161.730664 
" style="fill: none; stroke: #000000; stroke-width: 0.6; stroke-linejoin: miter; stroke-linecap: square"/>
   </g>
   <g id="text_13">
    <text style="font-size: 6.5px; font-family: 'Arial', 'Helvetica', 'DejaVu Sans'; text-anchor: start; fill: #757575" x="384.461537" y="20.855347" transform="rotate(-0 384.461537 20.855347)">projeção →</text>
   </g>
   <g id="legend_1">
    <g id="line2d_15">
     <path d="M 37.974033 15.510859 
L 44.474033 15.510859 
L 50.974033 15.510859 
" style="fill: none; stroke: #2166ac; stroke-linecap: square"/>
    </g>
    <g id="text_14">
     <text style="font-size: 6.5px; font-family: 'Arial', 'Helvetica', 'DejaVu Sans'; text-anchor: start" x="56.174033" y="17.785859" transform="rotate(-0 56.174033 17.785859)">Observado</text>
    </g>
    <g id="line2d_16">
     <path d="M 37.974033 24.860957 
L 44.474033 24.860957 
L 50.974033 24.860957 
" style="fill: none; stroke-dasharray: 4.44,1.92; stroke-dashoffset: 0; stroke: #b2182b; stroke-width: 1.2"/>
    </g>
    <g id="text_15">
     <text style="font-size: 6.5px; font-family: 'Arial', 'Helvetica', 'DejaVu Sans'; text-anchor: start" x="56.174033" y="27.135957" transform="rotate(-0 56.174033 27.135957)">Previsto (ARIMA)</text>
    </g>
   </g>
  </g>
 </g>
 <defs>
  <clipPath id="pd5992f35ea">
   <rect x="32.124033" y="7.2" width="444.601631" height="154.530664"/>
  </clipPath>
 </defs>
</svg>
